<?xml version="1.0" standalone="no"?>
<!DOCTYPE svg PUBLIC "-//W3C//DTD SVG 20010904//EN" "http://www.w3.org/TR/2001/REC-SVG-20010904/DTD/svg10.dtd">
<svg version="1.0" xmlns="http://www.w3.org/2000/svg"
    width="900.000000pt" height="900.000000pt" viewBox="0 0 900.000000 900.000000"
    preserveAspectRatio="xMidYMid meet">
    <g transform="translate(0.000000,900.000000) scale(0.100000,-0.100000)"
        fill="#000000" stroke="none">
        <path
            d="M1300 8160 c-20 -20 -20 -33 -20 -3773 0 -3624 1 -3754 18 -3770 16
-15 45 -17 201 -17 170 0 183 1 204 21 l22 20 0 3749 0 3748 -24 21 c-22 20
-36 21 -203 21 -165 0 -179 -1 -198 -20z" />
        <path
            d="M3150 8158 c-164 -12 -376 -38 -440 -53 -30 -7 -77 -16 -105 -20 -63
-9 -337 -82 -390 -105 -11 -5 -45 -16 -75 -26 -30 -10 -61 -22 -67 -27 -10 -7
-13 -114 -13 -473 0 -255 3 -464 8 -464 4 0 29 23 56 50 103 104 277 203 471
268 268 90 598 124 985 102 112 -6 207 -13 211 -16 4 -2 56 -11 116 -19 133
-19 311 -55 418 -84 122 -34 292 -88 350 -110 11 -5 54 -19 95 -32 41 -13 80
-26 85 -30 6 -3 44 -16 85 -28 41 -13 84 -26 95 -31 11 -5 58 -18 105 -30 47
-12 99 -25 115 -30 42 -14 150 -40 210 -51 28 -5 84 -16 125 -24 296 -60 766
-93 1054 -75 94 6 207 16 251 21 44 6 116 15 160 20 44 5 94 13 110 19 17 5
50 12 75 15 41 7 99 21 245 60 130 35 286 94 303 113 9 12 12 121 12 468 0
251 -4 455 -9 458 -5 3 -39 -23 -76 -59 -97 -94 -236 -177 -400 -238 -280
-106 -635 -150 -1030 -128 -110 6 -242 18 -295 27 -222 35 -349 61 -475 96
-38 11 -88 24 -110 29 -60 15 -219 70 -229 80 -6 5 -19 9 -30 9 -12 0 -73 18
-136 41 -118 42 -234 79 -328 104 -28 8 -76 22 -106 30 -168 49 -477 103 -721
125 -66 6 -154 15 -195 19 -98 11 -365 11 -510 -1z" />
        <path
            d="M3000 6919 c-181 -18 -269 -30 -349 -48 -25 -6 -68 -15 -96 -20 -27
-5 -76 -17 -107 -26 -32 -8 -82 -22 -110 -29 -29 -8 -87 -27 -128 -42 -41 -15
-91 -33 -110 -40 l-35 -12 -3 -459 c-1 -252 0 -463 2 -470 3 -7 31 14 68 49
53 51 215 168 232 168 3 0 34 14 68 30 34 17 66 30 72 30 6 0 23 6 37 14 42
21 220 71 314 86 120 20 313 40 450 45 188 8 577 -30 805 -79 118 -25 282 -66
320 -79 8 -3 89 -29 180 -57 91 -29 174 -56 185 -60 37 -15 220 -79 255 -89
140 -41 175 -51 241 -66 41 -9 84 -21 97 -26 13 -5 32 -9 43 -9 11 0 59 -9
107 -19 104 -24 276 -51 318 -51 17 0 44 -4 60 -10 84 -28 850 -29 1019 -1 33
5 94 15 135 22 152 23 209 35 390 82 98 26 304 99 323 115 16 14 17 49 17 466
0 248 -4 456 -8 463 -5 8 -33 -12 -85 -62 -43 -40 -113 -94 -157 -120 -88 -51
-246 -125 -270 -125 -9 0 -20 -4 -25 -9 -14 -12 -246 -68 -335 -81 -240 -32
-672 -38 -840 -11 -36 6 -96 15 -135 20 -75 10 -189 32 -295 55 -36 8 -87 20
-115 26 -27 6 -57 15 -65 19 -9 5 -31 12 -50 16 -38 7 -202 61 -235 76 -11 5
-38 13 -60 18 -22 5 -85 26 -140 46 -135 49 -138 50 -320 102 -88 24 -191 51
-230 59 -38 7 -104 20 -145 29 -101 21 -253 43 -380 55 -58 6 -144 14 -191 20
-134 16 -520 10 -719 -11z" />
        <path
            d="M3300 5704 c-14 -2 -101 -8 -195 -14 -93 -5 -197 -14 -230 -20 -33
-5 -89 -14 -125 -19 -82 -12 -198 -36 -275 -56 -33 -9 -78 -20 -100 -26 -45
-11 -209 -65 -240 -78 -11 -5 -32 -13 -47 -20 l-28 -11 0 -465 c0 -256 3 -465
7 -465 4 0 32 24 63 54 326 318 1000 444 1770 331 157 -23 326 -57 440 -90 30
-9 73 -21 95 -26 22 -6 85 -26 140 -45 55 -20 120 -41 145 -49 25 -7 110 -36
190 -63 80 -28 163 -56 185 -61 22 -5 66 -17 98 -25 165 -45 238 -62 397 -92
288 -55 718 -92 936 -80 311 15 478 32 614 61 36 8 90 19 120 24 81 13 241 57
355 97 55 19 116 40 137 46 23 6 38 17 42 31 9 36 7 915 -3 921 -5 3 -39 -24
-76 -60 -76 -73 -166 -133 -270 -182 -38 -18 -78 -37 -87 -43 -10 -5 -23 -9
-29 -9 -6 0 -25 -6 -42 -14 -61 -27 -190 -60 -352 -91 -137 -26 -441 -38 -657
-26 -193 10 -301 24 -498 63 -58 11 -125 24 -150 29 -25 5 -67 15 -95 23 -143
40 -177 51 -260 78 -49 16 -99 33 -110 38 -11 5 -36 12 -55 16 -19 3 -41 10
-50 14 -38 20 -261 94 -355 118 -22 6 -62 17 -90 25 -60 18 -199 50 -310 72
-44 8 -100 20 -125 25 -25 5 -76 12 -115 15 -38 4 -86 11 -105 15 -58 14 -598
42 -660 34z" />
        <path
            d="M2610 3760 c0 -5 0 -156 0 -335 0 -179 0 -329 0 -334 0 -6 74 -12
168 -14 155 -4 239 -15 347 -47 267 -77 496 -232 634 -429 33 -47 81 -142 81
-161 0 -9 4 -20 9 -25 5 -6 16 -55 26 -110 15 -94 15 -108 -1 -200 -9 -55 -20
-104 -25 -109 -5 -6 -9 -17 -9 -25 0 -21 -49 -117 -91 -177 -38 -56 -145 -166
-204 -211 -41 -31 -192 -123 -201 -123 -3 0 -26 -9 -52 -21 -26 -11 -56 -24
-67 -29 -26 -11 -112 -35 -195 -55 -81 -19 -305 -36 -371 -28 l-48 6 -3 -332
c-2 -182 -1 -336 0 -341 6 -16 431 -13 463 4 45 23 227 83 389 126 99 27 276
55 505 80 163 18 231 20 480 16 279 -4 420 -15 635 -50 153 -25 361 -75 450
-108 8 -3 38 -14 65 -23 28 -10 69 -26 92 -37 38 -16 65 -18 260 -16 l218 3 2
325 c2 179 -1 331 -5 337 -4 7 -35 17 -68 22 -66 10 -138 28 -169 41 -11 5
-45 19 -75 31 -241 99 -435 312 -502 551 -26 95 -28 285 -3 373 21 76 66 173
112 243 46 69 156 179 226 225 30 20 56 42 59 49 2 7 3 216 3 463 l-1 450
-1567 3 c-1043 1 -1567 -1 -1567 -8z" />
        <path
            d="M5999 3644 c-5 -7 -8 -152 -7 -350 3 -332 3 -339 23 -337 11 1 54 7
95 14 41 6 98 15 125 19 51 7 147 34 177 51 10 5 23 9 29 9 12 0 48 15 157 66
39 19 74 34 77 34 2 0 38 20 78 45 41 25 77 45 81 45 5 0 106 70 141 97 6 5
39 31 75 60 75 60 256 240 249 247 -3 3 -294 7 -648 8 -465 2 -645 0 -652 -8z" />
    </g>
</svg>