<svg xmlns="http://www.w3.org/2000/svg" width="1200" height="1200" version="1.0"
    viewBox="0 0 900 900">
    <g fill="#14B8A6">
        <path
            d="M130 84c-2 2-2 3.3-2 377.3 0 362.4.1 375.4 1.8 377 1.6 1.5 4.5 1.7 20.1 1.7 17 0 18.3-.1 20.4-2.1l2.2-2V86.2l-2.4-2.1c-2.2-2-3.6-2.1-20.3-2.1-16.5 0-17.9.1-19.8 2zM315 84.2c-16.4 1.2-37.6 3.8-44 5.3-3 .7-7.7 1.6-10.5 2-6.3.9-33.7 8.2-39 10.5-1.1.5-4.5 1.6-7.5 2.6s-6.1 2.2-6.7 2.7c-1 .7-1.3 11.4-1.3 47.3 0 25.5.3 46.4.8 46.4.4 0 2.9-2.3 5.6-5 10.3-10.4 27.7-20.3 47.1-26.8 26.8-9 59.8-12.4 98.5-10.2 11.2.6 20.7 1.3 21.1 1.6.4.2 5.6 1.1 11.6 1.9 13.3 1.9 31.1 5.5 41.8 8.4 12.2 3.4 29.2 8.8 35 11 1.1.5 5.4 1.9 9.5 3.2s8 2.6 8.5 3c.6.3 4.4 1.6 8.5 2.8 4.1 1.3 8.4 2.6 9.5 3.1s5.8 1.8 10.5 3 9.9 2.5 11.5 3c4.2 1.4 15 4 21 5.1 2.8.5 8.4 1.6 12.5 2.4 29.6 6 76.6 9.3 105.4 7.5 9.4-.6 20.7-1.6 25.1-2.1 4.4-.6 11.6-1.5 16-2s9.4-1.3 11-1.9c1.7-.5 5-1.2 7.5-1.5 4.1-.7 9.9-2.1 24.5-6 13-3.5 28.6-9.4 30.3-11.3.9-1.2 1.2-12.1 1.2-46.8 0-25.1-.4-45.5-.9-45.8s-3.9 2.3-7.6 5.9c-9.7 9.4-23.6 17.7-40 23.8-28 10.6-63.5 15-103 12.8-11-.6-24.2-1.8-29.5-2.7-22.2-3.5-34.9-6.1-47.5-9.6-3.8-1.1-8.8-2.4-11-2.9-6-1.5-21.9-7-22.9-8-.6-.5-1.9-.9-3-.9-1.2 0-7.3-1.8-13.6-4.1-11.8-4.2-23.4-7.9-32.8-10.4-2.8-.8-7.6-2.2-10.6-3-16.8-4.9-47.7-10.3-72.1-12.5-6.6-.6-15.4-1.5-19.5-1.9-9.8-1.1-36.5-1.1-51 .1z" />
        <path
            d="M300 208.1c-18.1 1.8-26.9 3-34.9 4.8-2.5.6-6.8 1.5-9.6 2-2.7.5-7.6 1.7-10.7 2.6-3.2.8-8.2 2.2-11 2.9-2.9.8-8.7 2.7-12.8 4.2s-9.1 3.3-11 4l-3.5 1.2-.3 45.9c-.1 25.2 0 46.3.2 47 .3.7 3.1-1.4 6.8-4.9 5.3-5.1 21.5-16.8 23.2-16.8.3 0 3.4-1.4 6.8-3 3.4-1.7 6.6-3 7.2-3s2.3-.6 3.7-1.4c4.2-2.1 22-7.1 31.4-8.6 12-2 31.3-4 45-4.5 18.8-.8 57.7 3 80.5 7.9 11.8 2.5 28.2 6.6 32 7.9.8.3 8.9 2.9 18 5.7 9.1 2.9 17.4 5.6 18.5 6 3.7 1.5 22 7.9 25.5 8.9 14 4.1 17.5 5.1 24.1 6.6 4.1.9 8.4 2.1 9.7 2.6s3.2.9 4.3.9 5.9.9 10.7 1.9c10.4 2.4 27.6 5.1 31.8 5.1 1.7 0 4.4.4 6 1 8.4 2.8 85 2.9 101.9.1 3.3-.5 9.4-1.5 13.5-2.2 15.2-2.3 20.9-3.5 39-8.2 9.8-2.6 30.4-9.9 32.3-11.5 1.6-1.4 1.7-4.9 1.7-46.6 0-24.8-.4-45.6-.8-46.3-.5-.8-3.3 1.2-8.5 6.2-4.3 4-11.3 9.4-15.7 12-8.8 5.1-24.6 12.5-27 12.5-.9 0-2 .4-2.5.9-1.4 1.2-24.6 6.8-33.5 8.1-24 3.2-67.2 3.8-84 1.1-3.6-.6-9.6-1.5-13.5-2-7.5-1-18.9-3.2-29.5-5.5-3.6-.8-8.7-2-11.5-2.6-2.7-.6-5.7-1.5-6.5-1.9-.9-.5-3.1-1.2-5-1.6-3.8-.7-20.2-6.1-23.5-7.6-1.1-.5-3.8-1.3-6-1.8s-8.5-2.6-14-4.6c-13.5-4.9-13.8-5-32-10.2-8.8-2.4-19.1-5.1-23-5.9-3.8-.7-10.4-2-14.5-2.9-10.1-2.1-25.3-4.3-38-5.5-5.8-.6-14.4-1.4-19.1-2-13.4-1.6-52-1-71.9 1.1zM330 329.6c-1.4.2-10.1.8-19.5 1.4-9.3.5-19.7 1.4-23 2-3.3.5-8.9 1.4-12.5 1.9-8.2 1.2-19.8 3.6-27.5 5.6-3.3.9-7.8 2-10 2.6-4.5 1.1-20.9 6.5-24 7.8-1.1.5-3.2 1.3-4.7 2L206 354v46.5c0 25.6.3 46.5.7 46.5s3.2-2.4 6.3-5.4c32.6-31.8 100-44.4 177-33.1 15.7 2.3 32.6 5.7 44 9 3 .9 7.3 2.1 9.5 2.6 2.2.6 8.5 2.6 14 4.5 5.5 2 12 4.1 14.5 4.9 2.5.7 11 3.6 19 6.3 8 2.8 16.3 5.6 18.5 6.1s6.6 1.7 9.8 2.5c16.5 4.5 23.8 6.2 39.7 9.2 28.8 5.5 71.8 9.2 93.6 8 31.1-1.5 47.8-3.2 61.4-6.1 3.6-.8 9-1.9 12-2.4 8.1-1.3 24.1-5.7 35.5-9.7 5.5-1.9 11.6-4 13.7-4.6 2.3-.6 3.8-1.7 4.2-3.1.9-3.6.7-91.5-.3-92.1-.5-.3-3.9 2.4-7.6 6-7.6 7.3-16.6 13.3-27 18.2-3.8 1.8-7.8 3.7-8.7 4.3-1 .5-2.3.9-2.9.9s-2.5.6-4.2 1.4c-6.1 2.7-19 6-35.2 9.1-13.7 2.6-44.1 3.8-65.7 2.6-19.3-1-30.1-2.4-49.8-6.3-5.8-1.1-12.5-2.4-15-2.9s-6.7-1.5-9.5-2.3c-14.3-4-17.7-5.1-26-7.8-4.9-1.6-9.9-3.3-11-3.8s-3.6-1.2-5.5-1.6c-1.9-.3-4.1-1-5-1.4-3.8-2-26.1-9.4-35.5-11.8-2.2-.6-6.2-1.7-9-2.5-6-1.8-19.9-5-31-7.2-4.4-.8-10-2-12.5-2.5s-7.6-1.2-11.5-1.5c-3.8-.4-8.6-1.1-10.5-1.5-5.8-1.4-59.8-4.2-66-3.4zM261 524v66.9c0 .6 7.4 1.2 16.8 1.4 15.5.4 23.9 1.5 34.7 4.7 26.7 7.7 49.6 23.2 63.4 42.9 3.3 4.7 8.1 14.2 8.1 16.1 0 .9.4 2 .9 2.5.5.6 1.6 5.5 2.6 11 1.5 9.4 1.5 10.8-.1 20-.9 5.5-2 10.4-2.5 10.9-.5.6-.9 1.7-.9 2.5 0 2.1-4.9 11.7-9.1 17.7-3.8 5.6-14.5 16.6-20.4 21.1-4.1 3.1-19.2 12.3-20.1 12.3-.3 0-2.6.9-5.2 2.1-2.6 1.1-5.6 2.4-6.7 2.9-2.6 1.1-11.2 3.5-19.5 5.5-8.1 1.9-30.5 3.6-37.1 2.8l-4.8-.6-.3 33.2c-.2 18.2-.1 33.6 0 34.1.6 1.6 43.1 1.3 46.3-.4 4.5-2.3 22.7-8.3 38.9-12.6 9.9-2.7 27.6-5.5 50.5-8 16.3-1.8 23.1-2 48-1.6 27.9.4 42 1.5 63.5 5 15.3 2.5 36.1 7.5 45 10.8.8.3 3.8 1.4 6.5 2.3 2.8 1 6.9 2.6 9.2 3.7 3.8 1.6 6.5 1.8 26 1.6l21.8-.3.2-32.5c.2-17.9-.1-33.1-.5-33.7-.4-.7-3.5-1.7-6.8-2.2-6.6-1-13.8-2.8-16.9-4.1-1.1-.5-4.5-1.9-7.5-3.1-24.1-9.9-43.5-31.2-50.2-55.1-2.6-9.5-2.8-28.5-.3-37.3 2.1-7.6 6.6-17.3 11.2-24.3 4.6-6.9 15.6-17.9 22.6-22.5 3-2 5.6-4.2 5.9-4.9.2-.7.3-21.6.3-46.3l-.1-45-156.7-.3c-104.3-.1-156.7.1-156.7.8zM599.9 535.6c-.5.7-.8 15.2-.7 35 .3 33.2.3 33.9 2.3 33.7 1.1-.1 5.4-.7 9.5-1.4 4.1-.6 9.8-1.5 12.5-1.9 5.1-.7 14.7-3.4 17.7-5.1 1-.5 2.3-.9 2.9-.9 1.2 0 4.8-1.5 15.7-6.6 3.9-1.9 7.4-3.4 7.7-3.4.2 0 3.8-2 7.8-4.5 4.1-2.5 7.7-4.5 8.1-4.5.5 0 10.6-7 14.1-9.7.6-.5 3.9-3.1 7.5-6 7.5-6 25.6-24 24.9-24.7-.3-.3-29.4-.7-64.8-.8-46.5-.2-64.5 0-65.2.8z" />
    </g>
</svg>